#N canvas 301 171 905 471 12;
#X obj 372 114 iemlib/hp2~ 8000 1.5;
#X obj 420 217 vline~;
#X obj 158 390 dac~;
#X obj 376 59 pink~;
#X obj 374 145 lop~ 17000;
#X obj 246 159 *~ 0.25;
#X obj 249 193 *~;
#X obj 447 19 bng 32 250 50 0 empty empty empty 17 7 0 10 -262144 -1
-1;
#X msg 432 183 0 \, 1 40 \, 0 5 40;
#X obj 243 256 *~ 1;
#X msg 656 85 2600;
#X obj 656 109 * 32;
#X obj 656 133 / 45;
#X floatatom 656 157 9 0 0 0 - - -;
#X obj 203 133 osc~ 1848.89;
#X obj 374 169 *~ 0.025;
#X obj 271 312 freeverb~;
#X msg 379 302 wet 0.05;
#X obj 385 273 loadbang;
#X msg 583 293 start;
#X msg 587 338 stop;
#X obj 554 231 spigot;
#X obj 613 196 tgl 15 0 empty empty empty 17 7 0 10 -262144 -1 -1 1
1;
#X obj 488 429 writesf~ 2;
#X msg 535 390 open -bytes 2 /tmp/foo.wav;
#X obj 585 263 del 1500;
#X connect 0 0 4 0;
#X connect 1 0 6 1;
#X connect 3 0 0 0;
#X connect 4 0 15 0;
#X connect 5 0 6 0;
#X connect 6 0 9 0;
#X connect 7 0 8 0;
#X connect 7 0 21 0;
#X connect 8 0 1 0;
#X connect 9 0 16 0;
#X connect 9 0 2 1;
#X connect 9 0 2 0;
#X connect 9 0 23 1;
#X connect 9 0 23 0;
#X connect 10 0 11 0;
#X connect 11 0 12 0;
#X connect 12 0 13 0;
#X connect 14 0 5 0;
#X connect 15 0 6 0;
#X connect 16 0 2 0;
#X connect 16 0 23 0;
#X connect 16 1 2 1;
#X connect 16 1 23 1;
#X connect 17 0 16 0;
#X connect 18 0 17 0;
#X connect 19 0 23 0;
#X connect 20 0 23 0;
#X connect 21 0 19 0;
#X connect 21 0 25 0;
#X connect 22 0 21 1;
#X connect 24 0 23 0;
#X connect 25 0 20 0;
